<?xml version="1.0" standalone="no"?>
<!DOCTYPE svg PUBLIC "-//W3C//DTD SVG 20010904//EN"
 "http://www.w3.org/TR/2001/REC-SVG-20010904/DTD/svg10.dtd">
<svg version="1.0" xmlns="http://www.w3.org/2000/svg"
 width="179.000000pt" height="179.000000pt" viewBox="0 0 179.000000 179.000000"
 preserveAspectRatio="xMidYMid meet">

<g transform="translate(0.000000,179.000000) scale(0.100000,-0.100000)"
fill="#000000" stroke="none">
<path d="M0 895 l0 -895 895 0 895 0 0 895 0 895 -895 0 -895 0 0 -895z m900
560 c0 -78 -3 -95 -15 -95 -12 0 -15 17 -15 95 0 78 3 95 15 95 12 0 15 -17
15 -95z m197 -353 c27 -2 83 -49 83 -70 0 -13 -4 -12 -22 5 -38 34 -64 43
-126 43 -65 0 -108 -21 -146 -73 -17 -23 -21 -43 -21 -107 0 -87 13 -116 75
-157 59 -41 179 -28 221 23 16 20 84 64 99 64 21 0 9 -39 -17 -58 -76 -52
-117 -65 -210 -70 -91 -4 -93 -4 -121 24 -16 16 -36 52 -46 79 -10 28 -22 58
-28 69 -7 14 -6 16 4 11 10 -6 10 -5 2 4 -20 21 30 167 68 198 18 16 93 21
185 15z m28 -117 c31 -31 35 -42 35 -85 0 -43 -4 -54 -35 -85 -32 -31 -42 -35
-87 -35 -45 0 -54 4 -84 36 -29 30 -34 43 -34 84 0 41 5 54 34 84 30 32 39 36
84 36 45 0 55 -4 87 -35z m-701 -51 c38 -15 9 -24 -74 -24 -73 0 -90 3 -90 15
0 12 15 15 74 15 41 0 81 -3 90 -6z m1086 -9 c0 -12 -16 -15 -85 -15 -78 0
-96 5 -78 23 3 4 42 7 85 7 63 0 78 -3 78 -15z m-610 -540 c0 -69 -3 -85 -15
-85 -12 0 -15 16 -15 85 0 69 3 85 15 85 12 0 15 -16 15 -85z"/>
</g>
</svg>
