<?xml version="1.0" standalone="no"?>
<!DOCTYPE svg PUBLIC "-//W3C//DTD SVG 20010904//EN"
 "http://www.w3.org/TR/2001/REC-SVG-20010904/DTD/svg10.dtd">
<svg version="1.0" xmlns="http://www.w3.org/2000/svg"
 width="605.000000pt" height="93.000000pt" viewBox="0 0 605.000000 93.000000"
 preserveAspectRatio="xMidYMid meet">
<metadata>
Created by potrace 1.15, written by Peter Selinger 2001-2017
</metadata>
<g transform="translate(0.000000,93.000000) scale(0.100000,-0.100000)"
fill="#1ed760" stroke="none">
<path d="M1245 891 c-86 -23 -162 -87 -185 -156 -19 -57 -8 -136 26 -192 38
-62 98 -98 206 -124 120 -29 157 -69 107 -115 -41 -37 -138 -21 -221 39 -16
10 -26 4 -74 -44 l-57 -57 19 -25 c28 -37 104 -86 160 -103 96 -30 231 -1 308
67 59 52 80 108 73 194 -9 115 -72 178 -212 210 -130 31 -165 57 -145 110 20
52 109 58 181 10 l40 -26 59 47 c33 26 60 50 60 55 0 14 -85 78 -126 95 -44
18 -173 27 -219 15z"/>
<path d="M1894 889 c-68 -16 -145 -68 -179 -123 l-30 -49 -3 -205 c-3 -203 -3
-205 23 -258 32 -66 81 -106 165 -134 128 -43 253 -10 344 91 25 28 46 54 46
58 0 4 -37 24 -82 44 l-82 37 -33 -32 c-28 -27 -40 -32 -84 -32 -45 0 -55 4
-80 32 l-29 32 0 145 c0 86 5 154 11 169 28 61 141 72 194 19 l26 -27 72 30
c44 18 73 36 75 46 2 10 -20 41 -55 77 -46 47 -69 63 -112 75 -60 17 -123 19
-187 5z"/>
<path d="M2534 889 c-61 -14 -145 -69 -176 -114 -39 -56 -51 -134 -46 -315 3
-136 6 -161 27 -202 27 -57 66 -92 141 -127 48 -22 68 -26 155 -26 82 0 109 4
149 23 75 34 111 66 140 124 25 51 26 57 26 248 0 190 -1 198 -25 247 -46 91
-137 142 -268 148 -45 2 -100 0 -123 -6z m160 -179 c14 -5 34 -18 46 -30 18
-18 20 -32 20 -178 0 -145 -2 -160 -20 -180 -45 -48 -156 -52 -204 -7 -26 24
-26 25 -26 180 0 93 4 165 11 176 21 41 114 62 173 39z"/>
<path d="M70 728 l-1 -163 93 -87 93 -87 5 157 5 157 35 3 c55 6 115 -7 139
-29 20 -19 21 -29 21 -178 0 -156 0 -158 -26 -182 -25 -23 -32 -24 -195 -28
l-169 -3 0 -90 0 -90 193 4 c174 3 197 5 242 26 60 28 100 63 128 117 21 37
22 54 22 245 0 193 -1 207 -22 247 -31 57 -87 100 -162 123 -52 17 -92 20
-232 20 l-169 0 0 -162z"/>
<path d="M760 500 l0 -390 100 0 100 0 0 390 0 390 -100 0 -100 0 0 -390z"/>
<path d="M3060 501 l0 -391 95 0 94 0 3 122 c4 165 10 165 124 8 48 -67 93
-124 99 -126 6 -3 62 -3 123 -2 l113 3 -103 129 c-92 117 -100 130 -84 140 43
25 78 61 98 100 26 50 35 171 19 234 -15 55 -68 113 -129 143 -43 22 -62 24
-249 27 l-203 4 0 -391z m345 195 c59 -25 75 -97 30 -141 -22 -22 -32 -25
-105 -25 l-80 0 0 83 c0 46 3 87 7 90 12 12 113 7 148 -7z"/>
<path d="M3760 728 l0 -164 90 -82 c50 -45 95 -82 100 -82 6 0 10 62 10 155
l0 155 48 0 c80 0 122 -17 138 -55 19 -47 19 -263 0 -310 -20 -46 -57 -55
-238 -55 l-148 0 0 -90 0 -90 168 0 c184 0 257 12 318 54 44 30 81 80 94 126
13 47 13 375 -1 424 -14 52 -79 119 -142 147 -47 21 -69 24 -244 27 l-193 4 0
-164z"/>
<path d="M4430 500 l0 -380 95 0 95 0 0 380 0 380 -95 0 -95 0 0 -380z"/>
<path d="M4750 500 l0 -380 90 0 90 0 0 130 0 130 150 0 150 0 0 90 0 90 -150
0 -151 0 3 68 3 67 168 3 167 2 0 90 0 90 -260 0 -260 0 0 -380z"/>
<path d="M5314 838 c13 -24 73 -126 132 -228 l108 -185 4 -153 3 -152 90 0 89
0 0 146 0 146 122 211 c66 117 128 222 136 235 l14 22 -114 0 -115 0 -63 -135
c-35 -74 -66 -135 -69 -135 -4 0 -37 61 -74 135 l-67 135 -110 0 -111 0 25
-42z"/>
</g>
</svg>
